<svg xmlns="http://www.w3.org/2000/svg" width="399" height="20" fill="none"><g fill="#000" clip-path="url(#a)"><path d="M300 1.667a5.829 5.829 0 0 0-5.833 5.833c0 4.375 5.833 10.833 5.833 10.833s5.833-6.458 5.833-10.833A5.829 5.829 0 0 0 300 1.667ZM295.833 7.5c0-2.3 1.867-4.167 4.167-4.167s4.167 1.867 4.167 4.167c0 2.4-2.4 5.992-4.167 8.233-1.733-2.225-4.167-5.858-4.167-8.233Z"/><path d="M300 9.583a2.083 2.083 0 1 0 0-4.165 2.083 2.083 0 0 0 0 4.165Z"/></g><path fill="#000" d="M321.53 15h1.89V4.53h-1.62v8.01h-.045l-1.155-2.22-3.42-5.79h-1.89V15h1.62V6.99h.045l1.155 2.22 3.42 5.79Zm7.408.18c2.175 0 3.585-1.59 3.585-4.08s-1.41-4.08-3.585-4.08-3.585 1.59-3.585 4.08 1.41 4.08 3.585 4.08Zm0-1.35c-1.11 0-1.86-.69-1.86-2.07v-1.32c0-1.38.75-2.07 1.86-2.07s1.86.69 1.86 2.07v1.32c0 1.38-.75 2.07-1.86 2.07Zm6.232-8.025c.675 0 .96-.36.96-.855v-.255c0-.495-.285-.855-.96-.855s-.975.36-.975.855v.255c0 .495.3.855.975.855ZM334.345 15h1.635V7.2h-1.635V15Zm8.875 0h1.635V3.9h-1.635v4.59h-.075c-.33-.93-1.155-1.47-2.19-1.47-1.965 0-3.105 1.515-3.105 4.08 0 2.565 1.14 4.08 3.105 4.08 1.035 0 1.86-.555 2.19-1.47h.075V15Zm-1.77-1.23c-1.125 0-1.875-.795-1.875-1.995v-1.35c0-1.2.75-1.995 1.875-1.995.99 0 1.77.54 1.77 1.335v2.67c0 .795-.78 1.335-1.77 1.335ZM353.821 15v-1.335h-.825V9.75c0-1.74-1.125-2.73-3.135-2.73-1.515 0-2.43.645-2.94 1.515l.975.885c.39-.615.945-1.065 1.86-1.065 1.095 0 1.605.555 1.605 1.5v.66h-1.41c-2.175 0-3.33.795-3.33 2.34 0 1.41.915 2.325 2.52 2.325 1.14 0 1.98-.51 2.28-1.485h.075c.105.765.555 1.305 1.41 1.305h.915Zm-4.215-1.065c-.81 0-1.32-.36-1.32-1.05v-.27c0-.675.555-1.05 1.695-1.05h1.38v1.125c0 .765-.75 1.245-1.755 1.245Zm6.969-1.02c-.735 0-1.095.42-1.095 1.02v.24c0 .48.255.855.78.96-.21.735-.63 1.29-1.275 1.935h1.215c.9-.735 1.47-1.92 1.47-2.895v-.24c0-.6-.36-1.02-1.095-1.02ZM367.696 15v-1.38h-1.44V5.91h1.44V4.53h-4.56v1.38h1.425v7.71h-1.425V15h4.56Zm3.645 0V9.78c0-.915.84-1.35 1.695-1.35 1.005 0 1.47.615 1.47 1.83V15h1.635v-4.95c0-1.92-.945-3.03-2.535-3.03-1.2 0-1.86.63-2.19 1.47h-.075V7.2h-1.635V15h1.635Zm11.971 0h1.635V3.9h-1.635v4.59h-.075c-.33-.93-1.155-1.47-2.19-1.47-1.965 0-3.105 1.515-3.105 4.08 0 2.565 1.14 4.08 3.105 4.08 1.035 0 1.86-.555 2.19-1.47h.075V15Zm-1.77-1.23c-1.125 0-1.875-.795-1.875-1.995v-1.35c0-1.2.75-1.995 1.875-1.995.99 0 1.77.54 1.77 1.335v2.67c0 .795-.78 1.335-1.77 1.335Zm6.567-7.965c.675 0 .96-.36.96-.855v-.255c0-.495-.285-.855-.96-.855s-.975.36-.975.855v.255c0 .495.3.855.975.855ZM387.284 15h1.635V7.2h-1.635V15Zm10.6 0v-1.335h-.825V9.75c0-1.74-1.125-2.73-3.135-2.73-1.515 0-2.43.645-2.94 1.515l.975.885c.39-.615.945-1.065 1.86-1.065 1.095 0 1.605.555 1.605 1.5v.66h-1.41c-2.175 0-3.33.795-3.33 2.34 0 1.41.915 2.325 2.52 2.325 1.14 0 1.98-.51 2.28-1.485h.075c.105.765.555 1.305 1.41 1.305h.915Zm-4.215-1.065c-.81 0-1.32-.36-1.32-1.05v-.27c0-.675.555-1.05 1.695-1.05h1.38v1.125c0 .765-.75 1.245-1.755 1.245ZM29.4 15v-1.38h-1.44V5.91h1.44V4.53h-4.56v1.38h1.425v7.71H24.84V15h4.56Zm3.645 0V9.78c0-.915.84-1.35 1.695-1.35 1.005 0 1.47.615 1.47 1.83V15h1.635v-4.95c0-1.92-.945-3.03-2.535-3.03-1.2 0-1.86.63-2.19 1.47h-.075V7.2H31.41V15h1.635Zm8.701 0V9.78c0-.915.84-1.35 1.695-1.35 1.005 0 1.47.615 1.47 1.83V15h1.635v-4.95c0-1.92-.945-3.03-2.535-3.03-1.2 0-1.86.63-2.19 1.47h-.075V7.2h-1.635V15h1.635Zm10.127.18c2.175 0 3.585-1.59 3.585-4.08s-1.41-4.08-3.585-4.08-3.585 1.59-3.585 4.08 1.41 4.08 3.585 4.08Zm0-1.35c-1.11 0-1.86-.69-1.86-2.07v-1.32c0-1.38.75-2.07 1.86-2.07s1.86.69 1.86 2.07v1.32c0 1.38-.75 2.07-1.86 2.07ZM60.777 15l2.685-7.8h-1.56l-1.215 3.555-.795 2.73h-.09l-.795-2.73L57.822 7.2h-1.62l2.655 7.8h1.92Zm10.56 0v-1.335h-.826V9.75c0-1.74-1.125-2.73-3.135-2.73-1.515 0-2.43.645-2.94 1.515l.975.885c.39-.615.945-1.065 1.86-1.065 1.095 0 1.605.555 1.605 1.5v.66h-1.41c-2.175 0-3.33.795-3.33 2.34 0 1.41.915 2.325 2.52 2.325 1.14 0 1.98-.51 2.28-1.485h.075c.105.765.555 1.305 1.41 1.305h.915Zm-4.216-1.065c-.81 0-1.32-.36-1.32-1.05v-.27c0-.675.555-1.05 1.695-1.05h1.38v1.125c0 .765-.75 1.245-1.755 1.245Zm8.833 1.245c1.5 0 2.565-.705 3.075-1.98l-1.245-.66c-.33.78-.885 1.29-1.83 1.29-1.2 0-1.815-.825-1.815-2.025V10.41c0-1.2.615-2.025 1.815-2.025.885 0 1.44.465 1.665 1.185l1.35-.63c-.465-1.155-1.455-1.92-3.015-1.92-2.25 0-3.54 1.59-3.54 4.08s1.29 4.08 3.54 4.08Zm7.558 0c1.5 0 2.565-.705 3.075-1.98l-1.245-.66c-.33.78-.885 1.29-1.83 1.29-1.2 0-1.815-.825-1.815-2.025V10.41c0-1.2.615-2.025 1.815-2.025.885 0 1.44.465 1.665 1.185l1.35-.63c-.465-1.155-1.455-1.92-3.015-1.92-2.25 0-3.54 1.59-3.54 4.08s1.29 4.08 3.54 4.08Zm7.604 0c1.455 0 2.595-.63 3.18-1.575l-.96-.945c-.45.72-1.095 1.17-2.055 1.17-1.32 0-2.055-.855-2.055-2.055v-.255h5.355v-.615c0-2.16-1.17-3.885-3.465-3.885-2.22 0-3.585 1.59-3.585 4.08s1.365 4.08 3.585 4.08Zm0-6.885c1.08 0 1.74.795 1.74 1.995v.15h-3.63v-.105c0-1.2.765-2.04 1.89-2.04ZM98.026 15v-4.98c0-.81.72-1.245 2.01-1.245h.645V7.2h-.435c-1.245 0-1.92.705-2.145 1.5h-.075V7.2H96.39V15h1.635Zm16.082 0-3.57-10.47h-2.13L104.838 15h1.725l.915-2.835h3.915l.945 2.835h1.77Zm-3.135-4.29h-3.09l1.515-4.62h.075l1.5 4.62Zm6.271 4.29V9.78c0-.915.84-1.35 1.695-1.35 1.005 0 1.47.615 1.47 1.83V15h1.635v-4.95c0-1.92-.945-3.03-2.535-3.03-1.2 0-1.86.63-2.19 1.47h-.075V7.2h-1.635V15h1.635Zm13.697 0v-1.335h-.825V9.75c0-1.74-1.125-2.73-3.135-2.73-1.515 0-2.43.645-2.94 1.515l.975.885c.39-.615.945-1.065 1.86-1.065 1.095 0 1.605.555 1.605 1.5v.66h-1.41c-2.175 0-3.33.795-3.33 2.34 0 1.41.915 2.325 2.52 2.325 1.14 0 1.98-.51 2.28-1.485h.075c.105.765.555 1.305 1.41 1.305h.915Zm-4.215-1.065c-.81 0-1.32-.36-1.32-1.05v-.27c0-.675.555-1.05 1.695-1.05h1.38v1.125c0 .765-.75 1.245-1.755 1.245ZM135.258 15v-1.335h-1.08V3.9h-1.635v9.48c0 1.005.555 1.62 1.665 1.62h1.05Zm4.67-3.21-.495 1.695h-.075l-.45-1.695-1.56-4.59h-1.635l2.835 8.145-.45 1.32h-1.32V18h.945c1.215 0 1.68-.405 2.055-1.455l3.285-9.345h-1.575l-1.56 4.59Zm8.065 3.21v-1.335h-1.515v-5.13h1.635V7.2h-1.635V5.07h-1.47v1.365c0 .54-.18.765-.72.765h-.66v1.335h1.215v4.77c0 1.065.6 1.695 1.725 1.695h1.425Zm2.719-9.195c.675 0 .96-.36.96-.855v-.255c0-.495-.285-.855-.96-.855s-.975.36-.975.855v.255c0 .495.3.855.975.855ZM149.887 15h1.635V7.2h-1.635V15Zm6.985.18c1.5 0 2.565-.705 3.075-1.98l-1.245-.66c-.33.78-.885 1.29-1.83 1.29-1.2 0-1.815-.825-1.815-2.025V10.41c0-1.2.615-2.025 1.815-2.025.885 0 1.44.465 1.665 1.185l1.35-.63c-.465-1.155-1.455-1.92-3.015-1.92-2.25 0-3.54 1.59-3.54 4.08s1.29 4.08 3.54 4.08Zm7.106 0c1.875 0 3.09-1.005 3.09-2.505 0-1.26-.765-2.01-2.475-2.265l-.72-.09c-.825-.135-1.2-.405-1.2-1.005 0-.585.42-.975 1.32-.975.84 0 1.5.405 1.905.885l1.005-.96c-.705-.78-1.5-1.245-2.91-1.245-1.71 0-2.895.885-2.895 2.4 0 1.44.975 2.13 2.565 2.325l.72.09c.81.105 1.11.48 1.11.975 0 .66-.48 1.05-1.425 1.05-.93 0-1.635-.42-2.205-1.11l-1.05.96c.735.915 1.695 1.47 3.165 1.47Zm10.297-.18v-4.17h2.805c1.92 0 3.045-1.245 3.045-3.15 0-1.905-1.125-3.15-3.045-3.15h-4.5V15h1.695Zm0-8.985h2.7c.855 0 1.365.465 1.365 1.305v.72c0 .84-.51 1.305-1.365 1.305h-2.7v-3.33ZM183.353 15v-4.98c0-.81.72-1.245 2.01-1.245h.645V7.2h-.435c-1.245 0-1.92.705-2.145 1.5h-.075V7.2h-1.635V15h1.635Zm4.932-9.195c.675 0 .96-.36.96-.855v-.255c0-.495-.285-.855-.96-.855s-.975.36-.975.855v.255c0 .495.3.855.975.855ZM187.46 15h1.635V7.2h-1.635V15Zm7.585 0 2.685-7.8h-1.56l-1.215 3.555-.795 2.73h-.09l-.795-2.73L192.09 7.2h-1.62l2.655 7.8h1.92Zm10.559 0v-1.335h-.825V9.75c0-1.74-1.125-2.73-3.135-2.73-1.515 0-2.43.645-2.94 1.515l.975.885c.39-.615.945-1.065 1.86-1.065 1.095 0 1.605.555 1.605 1.5v.66h-1.41c-2.175 0-3.33.795-3.33 2.34 0 1.41.915 2.325 2.52 2.325 1.14 0 1.98-.51 2.28-1.485h.075c.105.765.555 1.305 1.41 1.305h.915Zm-4.215-1.065c-.81 0-1.32-.36-1.32-1.05v-.27c0-.675.555-1.05 1.695-1.05h1.38v1.125c0 .765-.75 1.245-1.755 1.245ZM210.747 15v-1.335h-1.515v-5.13h1.635V7.2h-1.635V5.07h-1.47v1.365c0 .54-.18.765-.72.765h-.66v1.335h1.215v4.77c0 1.065.6 1.695 1.725 1.695h1.425Zm4.895.18c1.455 0 2.595-.63 3.18-1.575l-.96-.945c-.45.72-1.095 1.17-2.055 1.17-1.32 0-2.055-.855-2.055-2.055v-.255h5.355v-.615c0-2.16-1.17-3.885-3.465-3.885-2.22 0-3.585 1.59-3.585 4.08s1.365 4.08 3.585 4.08Zm0-6.885c1.08 0 1.74.795 1.74 1.995v.15h-3.63v-.105c0-1.2.765-2.04 1.89-2.04ZM230.537 15v-1.5h-4.26V4.53h-1.695V15h5.955Zm4.995 0v-1.335h-1.515v-5.13h1.635V7.2h-1.635V5.07h-1.47v1.365c0 .54-.18.765-.72.765h-.66v1.335h1.215v4.77c0 1.065.6 1.695 1.725 1.695h1.425Zm6.74 0h1.635V3.9h-1.635v4.59h-.075c-.33-.93-1.155-1.47-2.19-1.47-1.965 0-3.105 1.515-3.105 4.08 0 2.565 1.14 4.08 3.105 4.08 1.035 0 1.86-.555 2.19-1.47h.075V15Zm-1.77-1.23c-1.125 0-1.875-.795-1.875-1.995v-1.35c0-1.2.75-1.995 1.875-1.995.99 0 1.77.54 1.77 1.335v2.67c0 .795-.78 1.335-1.77 1.335Zm6.747 1.41c.735 0 1.095-.435 1.095-1.02v-.225c0-.585-.36-1.02-1.095-1.02s-1.095.435-1.095 1.02v.225c0 .585.36 1.02 1.095 1.02Z"/><g clip-path="url(#b)"><path fill="#000" d="M11.667 5V3.333H8.333V5h3.334ZM3.333 6.667v9.166h13.334V6.667H3.333ZM16.667 5a1.66 1.66 0 0 1 1.666 1.667v9.166c0 .925-.741 1.667-1.666 1.667H3.333a1.66 1.66 0 0 1-1.666-1.667l.008-9.166C1.675 5.742 2.408 5 3.333 5h3.334V3.333a1.66 1.66 0 0 1 1.666-1.666h3.334a1.66 1.66 0 0 1 1.666 1.666V5h3.334Z"/></g><defs><clipPath id="a"><path fill="#fff" d="M290 0h20v20h-20z"/></clipPath><clipPath id="b"><path fill="#fff" d="M0 0h20v20H0z"/></clipPath></defs></svg>