<svg xmlns="http://www.w3.org/2000/svg" width="358" height="20" fill="none"><g fill="#000" clip-path="url(#a)"><path d="M216 1.667a5.829 5.829 0 0 0-5.833 5.833c0 4.375 5.833 10.833 5.833 10.833s5.833-6.458 5.833-10.833A5.829 5.829 0 0 0 216 1.667ZM211.833 7.5c0-2.3 1.867-4.167 4.167-4.167s4.167 1.867 4.167 4.167c0 2.4-2.4 5.992-4.167 8.233-1.733-2.225-4.167-5.858-4.167-8.233Z"/><path d="M216 9.583a2.083 2.083 0 1 0 0-4.165 2.083 2.083 0 0 0 0 4.165Z"/></g><path fill="#000" d="m239.6 15-3.57-10.47h-2.13L230.33 15h1.725l.915-2.835h3.915L237.83 15h1.77Zm-3.135-4.29h-3.09l1.515-4.62h.075l1.5 4.62Zm4.637 4.29h1.635V9.765c0-.9.84-1.335 1.695-1.335 1.005 0 1.47.615 1.47 1.815V15h1.635v-4.95c0-1.92-.945-3.03-2.535-3.03-1.2 0-1.86.63-2.19 1.47h-.075V3.9h-1.635V15Zm10.336 0V9.765c0-.9.795-1.335 1.605-1.335.96 0 1.425.6 1.425 1.815V15h1.635V9.765c0-.9.765-1.335 1.59-1.335.99 0 1.44.615 1.44 1.815V15h1.635v-4.95c0-1.92-.915-3.03-2.46-3.03-1.26 0-2.07.72-2.355 1.59h-.045c-.375-1.08-1.26-1.59-2.31-1.59-1.185 0-1.77.66-2.085 1.47h-.075V7.2h-1.635V15h1.635Zm14.652.18c1.455 0 2.595-.63 3.18-1.575l-.96-.945c-.45.72-1.095 1.17-2.055 1.17-1.32 0-2.055-.855-2.055-2.055v-.255h5.355v-.615c0-2.16-1.17-3.885-3.465-3.885-2.22 0-3.585 1.59-3.585 4.08s1.365 4.08 3.585 4.08Zm0-6.885c1.08 0 1.74.795 1.74 1.995v.15h-3.63v-.105c0-1.2.765-2.04 1.89-2.04ZM276.27 15h1.635V3.9h-1.635v4.59h-.075c-.33-.93-1.155-1.47-2.19-1.47-1.965 0-3.105 1.515-3.105 4.08 0 2.565 1.14 4.08 3.105 4.08 1.035 0 1.86-.555 2.19-1.47h.075V15Zm-1.77-1.23c-1.125 0-1.875-.795-1.875-1.995v-1.35c0-1.2.75-1.995 1.875-1.995.99 0 1.77.54 1.77 1.335v2.67c0 .795-.78 1.335-1.77 1.335ZM286.872 15v-1.335h-.825V9.75c0-1.74-1.125-2.73-3.135-2.73-1.515 0-2.43.645-2.94 1.515l.975.885c.39-.615.945-1.065 1.86-1.065 1.095 0 1.605.555 1.605 1.5v.66h-1.41c-2.175 0-3.33.795-3.33 2.34 0 1.41.915 2.325 2.52 2.325 1.14 0 1.98-.51 2.28-1.485h.075c.105.765.555 1.305 1.41 1.305h.915Zm-4.215-1.065c-.81 0-1.32-.36-1.32-1.05v-.27c0-.675.555-1.05 1.695-1.05h1.38v1.125c0 .765-.75 1.245-1.755 1.245ZM288.475 15h1.635v-1.29h.075c.33.915 1.155 1.47 2.19 1.47 1.965 0 3.105-1.515 3.105-4.08 0-2.565-1.14-4.08-3.105-4.08-1.035 0-1.86.54-2.19 1.47h-.075V3.9h-1.635V15Zm3.405-1.23c-.99 0-1.77-.54-1.77-1.335v-2.67c0-.795.78-1.335 1.77-1.335 1.125 0 1.875.795 1.875 1.995v1.35c0 1.2-.75 1.995-1.875 1.995ZM303.982 15v-1.335h-.825V9.75c0-1.74-1.125-2.73-3.135-2.73-1.515 0-2.43.645-2.94 1.515l.975.885c.39-.615.945-1.065 1.86-1.065 1.095 0 1.605.555 1.605 1.5v.66h-1.41c-2.175 0-3.33.795-3.33 2.34 0 1.41.915 2.325 2.52 2.325 1.14 0 1.98-.51 2.28-1.485h.075c.105.765.555 1.305 1.41 1.305h.915Zm-4.215-1.065c-.81 0-1.32-.36-1.32-1.05v-.27c0-.675.555-1.05 1.695-1.05h1.38v1.125c0 .765-.75 1.245-1.755 1.245ZM310.489 15h1.635V3.9h-1.635v4.59h-.075c-.33-.93-1.155-1.47-2.19-1.47-1.965 0-3.105 1.515-3.105 4.08 0 2.565 1.14 4.08 3.105 4.08 1.035 0 1.86-.555 2.19-1.47h.075V15Zm-1.77-1.23c-1.125 0-1.875-.795-1.875-1.995v-1.35c0-1.2.75-1.995 1.875-1.995.99 0 1.77.54 1.77 1.335v2.67c0 .795-.78 1.335-1.77 1.335Zm6.747-.855c-.735 0-1.095.42-1.095 1.02v.24c0 .48.255.855.78.96-.21.735-.63 1.29-1.275 1.935h1.215c.9-.735 1.47-1.92 1.47-2.895v-.24c0-.6-.36-1.02-1.095-1.02ZM326.587 15v-1.38h-1.44V5.91h1.44V4.53h-4.56v1.38h1.425v7.71h-1.425V15h4.56Zm3.645 0V9.78c0-.915.84-1.35 1.695-1.35 1.005 0 1.47.615 1.47 1.83V15h1.635v-4.95c0-1.92-.945-3.03-2.535-3.03-1.2 0-1.86.63-2.19 1.47h-.075V7.2h-1.635V15h1.635Zm11.971 0h1.635V3.9h-1.635v4.59h-.075c-.33-.93-1.155-1.47-2.19-1.47-1.965 0-3.105 1.515-3.105 4.08 0 2.565 1.14 4.08 3.105 4.08 1.035 0 1.86-.555 2.19-1.47h.075V15Zm-1.77-1.23c-1.125 0-1.875-.795-1.875-1.995v-1.35c0-1.2.75-1.995 1.875-1.995.99 0 1.77.54 1.77 1.335v2.67c0 .795-.78 1.335-1.77 1.335ZM347 5.805c.675 0 .96-.36.96-.855v-.255c0-.495-.285-.855-.96-.855s-.975.36-.975.855v.255c0 .495.3.855.975.855ZM346.175 15h1.635V7.2h-1.635V15Zm10.6 0v-1.335h-.825V9.75c0-1.74-1.125-2.73-3.135-2.73-1.515 0-2.43.645-2.94 1.515l.975.885c.39-.615.945-1.065 1.86-1.065 1.095 0 1.605.555 1.605 1.5v.66h-1.41c-2.175 0-3.33.795-3.33 2.34 0 1.41.915 2.325 2.52 2.325 1.14 0 1.98-.51 2.28-1.485h.075c.105.765.555 1.305 1.41 1.305h.915Zm-4.215-1.065c-.81 0-1.32-.36-1.32-1.05v-.27c0-.675.555-1.05 1.695-1.05h1.38v1.125c0 .765-.75 1.245-1.755 1.245ZM26.985 15v-4.56h4.305v-1.5h-4.305V6.03h4.845v-1.5h-6.54V15h1.695Zm8.008 0v-4.98c0-.81.72-1.245 2.01-1.245h.645V7.2h-.434c-1.245 0-1.92.705-2.145 1.5h-.076V7.2h-1.635V15h1.636Zm4.933-9.195c.675 0 .96-.36.96-.855v-.255c0-.495-.285-.855-.96-.855s-.975.36-.975.855v.255c0 .495.3.855.975.855ZM39.1 15h1.635V7.2H39.1V15Zm4.974-2.085c-.735 0-1.095.42-1.095 1.02v.24c0 .48.255.855.78.96-.21.735-.63 1.29-1.275 1.935H43.7c.9-.735 1.47-1.92 1.47-2.895v-.24c0-.6-.36-1.02-1.095-1.02ZM58.271 15v-1.41h-2.55V4.53h-2.58l-2.67 2.895 1.035.93 2.43-2.595h.12v7.83h-2.94V15h7.155Zm8.634-1.44h-5.28l2.46-2.115c1.38-1.185 2.505-2.295 2.505-3.99 0-1.815-1.23-3.105-3.36-3.105-2.1 0-3.15 1.23-3.585 2.55l1.485.57c.255-.915.81-1.65 1.965-1.65 1.035 0 1.695.63 1.695 1.635v.195c0 .96-.6 1.8-1.65 2.745l-3.345 2.985V15h7.11v-1.44Zm9.764 1.62c2.73 0 4.515-1.89 4.515-5.415 0-3.525-1.785-5.415-4.515-5.415-2.73 0-4.515 1.89-4.515 5.415 0 3.525 1.785 5.415 4.515 5.415Zm0-1.515c-1.62 0-2.7-1.17-2.7-3.075V8.94c0-1.905 1.08-3.075 2.7-3.075s2.7 1.17 2.7 3.075v1.65c0 1.905-1.08 3.075-2.7 3.075Zm9.524 1.515c1.5 0 2.565-.705 3.075-1.98l-1.245-.66c-.33.78-.885 1.29-1.83 1.29-1.2 0-1.815-.825-1.815-2.025V10.41c0-1.2.615-2.025 1.815-2.025.885 0 1.44.465 1.665 1.185l1.35-.63c-.465-1.155-1.455-1.92-3.015-1.92-2.25 0-3.54 1.59-3.54 4.08s1.29 4.08 3.54 4.08Zm8.216-.18v-1.335h-1.515v-5.13h1.635V7.2h-1.635V5.07h-1.47v1.365c0 .54-.18.765-.72.765h-.66v1.335h1.215v4.77c0 1.065.6 1.695 1.725 1.695h1.425Zm2.899-2.085c-.735 0-1.095.42-1.095 1.02v.24c0 .48.255.855.78.96-.21.735-.63 1.29-1.275 1.935h1.215c.9-.735 1.47-1.92 1.47-2.895v-.24c0-.6-.36-1.02-1.095-1.02Zm13.835.645h-5.28l2.46-2.115c1.38-1.185 2.505-2.295 2.505-3.99 0-1.815-1.23-3.105-3.36-3.105-2.1 0-3.15 1.23-3.585 2.55l1.485.57c.255-.915.81-1.65 1.965-1.65 1.035 0 1.695.63 1.695 1.635v.195c0 .96-.6 1.8-1.65 2.745l-3.345 2.985V15h7.11v-1.44Zm5.379 1.62c2.61 0 3.795-1.995 3.795-5.415s-1.185-5.415-3.795-5.415-3.795 1.995-3.795 5.415 1.185 5.415 3.795 5.415Zm0-1.44c-1.455 0-1.995-1.23-1.995-3.06V8.85c0-1.83.54-3.06 1.995-3.06s1.995 1.23 1.995 3.06v1.83c0 1.83-.54 3.06-1.995 3.06Zm12.97 1.26v-1.41h-2.55V4.53h-2.58l-2.67 2.895 1.035.93 2.43-2.595h.12v7.83h-2.94V15h7.155Zm5.019.18c2.43 0 3.75-1.305 3.75-3.03 0-1.395-.84-2.235-2.1-2.58v-.12c1.065-.375 1.785-1.215 1.785-2.415 0-1.605-1.26-2.685-3.435-2.685s-3.435 1.08-3.435 2.685c0 1.2.72 2.04 1.785 2.415v.12c-1.26.345-2.1 1.185-2.1 2.58 0 1.725 1.32 3.03 3.75 3.03Zm0-1.365c-1.26 0-1.98-.615-1.98-1.65v-.3c0-1.035.72-1.65 1.98-1.65s1.98.615 1.98 1.65v.3c0 1.035-.72 1.65-1.98 1.65Zm0-4.905c-1.155 0-1.785-.525-1.785-1.47v-.255c0-.945.63-1.47 1.785-1.47 1.155 0 1.785.525 1.785 1.47v.255c0 .945-.63 1.47-1.785 1.47Z"/><g clip-path="url(#b)"><path fill="#000" d="M15.833 2.5H15V.833h-1.667V2.5H6.667V.833H5V2.5h-.833a1.66 1.66 0 0 0-1.659 1.667L2.5 15.833c0 .917.742 1.667 1.667 1.667h11.666c.917 0 1.667-.75 1.667-1.667V4.167c0-.917-.75-1.667-1.667-1.667Zm0 13.333H4.167V6.667h11.666v9.166Zm-10-7.5H10V12.5H5.833V8.333Z"/></g><defs><clipPath id="a"><path fill="#fff" d="M206 0h20v20h-20z"/></clipPath><clipPath id="b"><path fill="#fff" d="M0 0h20v20H0z"/></clipPath></defs></svg>