<svg xmlns="http://www.w3.org/2000/svg" width="163" height="24" fill="none"><g clip-path="url(#a)"><path fill="#CDDC36" d="M96.795 15.498a3.48 3.48 0 0 0 3.479-3.481 3.48 3.48 0 0 0-3.479-3.482 3.48 3.48 0 0 0-3.479 3.482 3.48 3.48 0 0 0 3.48 3.481Z"/><path fill="#DAE233" d="m84.788 11.146 5.486-5.49H86.56a12.235 12.235 0 0 0-1.773 5.49ZM95.959 0a11.7 11.7 0 0 0-5.652 1.875v3.783L95.959 0Zm12.81 11.146-5.486-5.49h3.713a11.83 11.83 0 0 1 1.773 5.49Z"/><path fill="#DAE233" d="M97.632 0c2.013.127 3.96.773 5.652 1.875v3.783L97.632 0Zm-7.325 12.786H84.82c.13 1.948.738 3.835 1.773 5.49h3.713v-5.49Zm13.011 0h5.486a11.843 11.843 0 0 1-1.774 5.49h-3.712v-5.49Z"/><path fill="#46B746" d="m95.959 5.59-5.546 5.55h-5.625L95.958-.006v5.597Zm1.672 18.375a11.1 11.1 0 0 0 5.687-1.807v-9.372l-5.687 5.691v5.488Zm-1.705-5.521-5.62-5.623v9.371A11.638 11.638 0 0 0 95.96 24v-5.55l-.033-.006ZM97.631 5.59l5.546 5.55h5.619L97.631 0v5.59Z"/><path fill="#27A365" d="M17.69 22.622a.797.797 0 0 1-.837-.569l-2.548-6.929H4.182l-2.475 6.929a.849.849 0 0 1-.836.569.883.883 0 0 1-.874-.813.886.886 0 0 1 .07-.427L6.623 3.273a2.7 2.7 0 0 1 2.643-2.101 2.768 2.768 0 0 1 2.675 2.076l6.595 18.142c.035.097.057.198.067.3a.953.953 0 0 1-.914.931ZM4.845 13.35h8.796l-3.478-9.741a.945.945 0 0 0-.9-.77c-.4 0-.7.269-.9.805L4.847 13.35ZM24.516 3.213h-6.559a.87.87 0 0 1-.648-1.504.87.87 0 0 1 .648-.236h14.75a.869.869 0 0 1 0 1.74h-6.45v18.61a.87.87 0 0 1-1.673.334.87.87 0 0 1-.066-.333l-.002-18.611Zm27.09 12.285a7.204 7.204 0 0 1-2.208 5.222 7.66 7.66 0 0 1-5.752 2.209 8.375 8.375 0 0 1-6.021-2.376 9.084 9.084 0 0 1-2.71-6.026 30.225 30.225 0 0 1 0-4.92 8.92 8.92 0 0 1 2.71-5.957 8.33 8.33 0 0 1 6.02-2.411 7.953 7.953 0 0 1 7.56 4.887.917.917 0 0 1-.837 1.239.82.82 0 0 1-.837-.568 6.333 6.333 0 0 0-5.887-3.783 6.537 6.537 0 0 0-4.682 1.875 7.052 7.052 0 0 0-2.208 4.686 25.187 25.187 0 0 0 0 5.02 7.255 7.255 0 0 0 2.173 4.719 6.62 6.62 0 0 0 4.716 1.875 6.51 6.51 0 0 0 4.448-1.5 4.967 4.967 0 0 0 1.739-3.95v-2.35h-5.017a.869.869 0 0 1-.614-1.485.87.87 0 0 1 .614-.255h5.117a1.529 1.529 0 0 1 1.673 1.607l.003 2.242Zm5.554 6.393a.976.976 0 0 1-1.002 1.038 1.013 1.013 0 0 1-1.003-1.038v-1.64c-.1-1.339 2.074-1.339 2.007 0l-.002 1.64Z"/><path fill="#5C5D5D" d="M58.064 2.444a.87.87 0 0 1 .87-1.139.76.76 0 0 1 .836.704l4.247 19.08c0 .234.234.168.3 0L69.133 2.88a1.772 1.772 0 0 1 1.84-1.5 1.798 1.798 0 0 1 1.838 1.5l4.715 18.243c.068.168.3.234.3 0l4.315-19.05a.842.842 0 0 1 .87-.77.818.818 0 0 1 .836 1.139L79.5 21.454a1.853 1.853 0 0 1-3.612 0L71.072 3.212a.15.15 0 0 0-.3 0L65.89 21.454a1.854 1.854 0 0 1-2.962 1.037 1.854 1.854 0 0 1-.65-1.037l-4.214-19.01Zm67.829 20.317a.999.999 0 0 1-.703-.334l-5.953-7.464a1.935 1.935 0 0 0-1.706-.97h-4.214v7.865a.941.941 0 0 1-.87.9.917.917 0 0 1-.869-.9V3.213a1.67 1.67 0 0 1 1.74-1.74h6.121a6.732 6.732 0 0 1 4.783 1.674 5.985 5.985 0 0 1 1.839 4.65c0 3.515-2.074 5.49-5.546 5.958l6.087 7.565c.12.164.18.365.168.568a.84.84 0 0 1-.248.628.852.852 0 0 1-.629.245Zm-12.542-10.543h5.619c3.579 0 5.351-1.473 5.351-4.485 0-2.778-1.706-4.52-4.916-4.52h-6.054v9.005Zm16.322-9.975a.87.87 0 0 1 1.484-.616.87.87 0 0 1 .255.616V20.82h10.569a.948.948 0 0 1 .9.9.918.918 0 0 1-.9.87h-10.535a1.702 1.702 0 0 1-1.773-1.774V2.242Zm18.362 20.383a1.587 1.587 0 0 1-1.672-1.707V3.146a1.584 1.584 0 0 1 .45-1.233 1.584 1.584 0 0 1 1.222-.474h5.222a8.728 8.728 0 0 1 6.689 2.476 9.533 9.533 0 0 1 2.575 6.494c.067 1.103.067 2.21 0 3.313a9.672 9.672 0 0 1-2.612 6.467 8.867 8.867 0 0 1-6.656 2.443h-5.218v-.006Zm12.74-12.285c-.267-4.485-2.71-7.13-7.558-7.13h-5.084V20.82h5.084c4.85 0 7.324-2.678 7.558-7.13.068-1.114.069-2.232.003-3.347l-.003-.001Z"/><path fill="url(#b)" d="M90.3 22.2v-9.38l5.612 5.63h.033V24a11.614 11.614 0 0 1-5.644-1.8Zm7.315-3.715 5.677-5.691v9.372a11.071 11.071 0 0 1-5.677 1.807v-5.488Zm5.677-.201v-5.498h5.479a11.876 11.876 0 0 1-1.77 5.49l-3.709.008Zm-16.7 0a11.858 11.858 0 0 1-1.77-5.498h5.479v5.49l-3.708.008Zm6.715-6.267a3.477 3.477 0 0 1 2.148-3.207 3.47 3.47 0 0 1 4.732 2.537 3.482 3.482 0 0 1-1.478 3.566 3.47 3.47 0 0 1-5.402-2.896Zm9.854-.87-5.546-5.55V0c2.012.127 3.956.773 5.644 1.875V5.64l.017.017h3.696a11.859 11.859 0 0 1 1.767 5.454l.032.035h-5.61Zm-18.371 0 .04-.047c.15-1.929.756-3.794 1.767-5.443h3.687l.017-.017V1.875A11.676 11.676 0 0 1 95.945 0v5.59L90.4 11.14l-5.61.006Z"/></g><defs><linearGradient id="b" x1="84.79" x2="96.791" y1="10.464" y2="23.991" gradientUnits="userSpaceOnUse"><stop stop-color="#00A854"/><stop offset="1" stop-color="#004D25"/></linearGradient><clipPath id="a"><path fill="#fff" d="M0 0h162.566v24H0z"/></clipPath></defs></svg>