<svg xmlns="http://www.w3.org/2000/svg" width="18" height="18" fill="none"><g fill="#000" clip-path="url(#a)"><path d="M15.75 9V7.5H9l1.005-4.005L6.75 6.75v7.5h6.75L15.75 9Z" opacity=".3"/><path d="M6.75 15.75h6.75a1.49 1.49 0 0 0 1.38-.915l2.265-5.288c.067-.172.105-.352.105-.547V7.5c0-.825-.675-1.5-1.5-1.5h-4.732l.712-3.428.022-.24c0-.307-.127-.592-.33-.794L10.627.75 5.685 5.692A1.49 1.49 0 0 0 5.25 6.75v7.5c0 .825.675 1.5 1.5 1.5Zm0-9 3.255-3.255L9 7.5h6.75V9l-2.25 5.25H6.75v-7.5Zm-6 0h3v9h-3v-9Z"/></g><defs><clipPath id="a"><path fill="#fff" d="M0 0h18v18H0z"/></clipPath></defs></svg>