<svg xmlns="http://www.w3.org/2000/svg" width="95" height="18" fill="none"><path fill="#525252" fill-rule="evenodd" d="M.75 9C2.047 5.707 5.25 3.375 9 3.375S15.953 5.707 17.25 9c-1.297 3.293-4.5 5.625-8.25 5.625S2.047 12.293.75 9Zm14.865 0A7.328 7.328 0 0 0 9 4.875 7.328 7.328 0 0 0 2.385 9 7.328 7.328 0 0 0 9 13.125 7.328 7.328 0 0 0 15.615 9ZM9 7.125a1.876 1.876 0 1 1-.001 3.751A1.876 1.876 0 0 1 9 7.125ZM5.625 9A3.38 3.38 0 0 1 9 5.625 3.38 3.38 0 0 1 12.375 9 3.38 3.38 0 0 1 9 12.375 3.38 3.38 0 0 1 5.625 9Z" clip-rule="evenodd"/><path fill="#525252" d="M27.777 14v-1.316h2.744V5.376h-.112L28.14 7.798l-.966-.868 2.492-2.702h2.408v8.456h2.38V14h-6.678Zm9.192.168c-.345 0-.602-.089-.77-.266a.988.988 0 0 1-.252-.686v-.21c0-.27.084-.495.252-.672.169-.187.425-.28.77-.28.346 0 .602.093.77.28a.938.938 0 0 1 .253.672v.21c0 .27-.084.5-.252.686-.169.177-.425.266-.77.266ZM44.026 14v-1.904H39.49v-1.358l3.962-6.51h2.072v6.622h1.33v1.246h-1.33V14h-1.498Zm-3.192-3.15h3.192V5.67h-.098l-3.094 5.18Zm7.652-7.21h1.527v6.356h.07l1.008-1.302 1.75-1.974h1.777l-2.547 2.814L54.925 14h-1.82l-2.086-3.472-1.008 1.092V14h-1.526V3.64ZM61.034 14l-2.478-7.28h1.512l1.106 3.318.742 2.548H62l.742-2.548 1.134-3.318h1.456L62.825 14h-1.792Zm6.352-8.582c-.317 0-.55-.075-.7-.224a.806.806 0 0 1-.21-.574v-.238c0-.233.07-.425.21-.574.15-.15.383-.224.7-.224.318 0 .546.075.686.224.14.15.21.34.21.574v.238c0 .233-.07.425-.21.574-.14.15-.368.224-.686.224Zm-.77 1.302h1.526V14h-1.526V6.72Zm6.562 7.448a3.5 3.5 0 0 1-1.4-.266 2.94 2.94 0 0 1-1.05-.756 3.596 3.596 0 0 1-.672-1.204 5.269 5.269 0 0 1-.225-1.582c0-.579.075-1.101.225-1.568.158-.476.382-.877.671-1.204.29-.336.64-.593 1.05-.77a3.5 3.5 0 0 1 1.4-.266c.532 0 1 .093 1.4.28a2.76 2.76 0 0 1 1.023.784c.27.327.47.71.602 1.148.14.439.21.91.21 1.414v.574h-4.999v.238c0 .56.164 1.022.49 1.386.337.355.813.532 1.428.532.448 0 .826-.098 1.135-.294.307-.196.569-.462.784-.798l.895.882c-.27.448-.662.807-1.175 1.078-.514.261-1.111.392-1.792.392Zm0-6.426c-.262 0-.505.047-.729.14a1.687 1.687 0 0 0-.56.392 1.834 1.834 0 0 0-.35.602c-.084.233-.126.49-.126.77v.098H74.8v-.14c0-.56-.144-1.008-.433-1.344-.29-.345-.687-.518-1.19-.518Zm4.126-1.022h1.484l.742 3.052.659 2.758h.041l.757-2.758.882-3.052h1.372l.895 3.052.77 2.758h.043l.644-2.758.755-3.052h1.415L85.802 14h-1.723l-.951-3.318-.588-2.044h-.029l-.573 2.044L80.972 14h-1.68l-1.989-7.28Zm14.181 7.448c-.69 0-1.27-.121-1.736-.364a3.81 3.81 0 0 1-1.218-1.008l.98-.896c.27.327.57.583.896.77.336.177.723.266 1.162.266.448 0 .78-.084.994-.252.224-.177.336-.42.336-.728a.8.8 0 0 0-.238-.588c-.15-.168-.415-.275-.798-.322l-.672-.084c-.747-.093-1.335-.308-1.764-.644-.42-.345-.63-.854-.63-1.526 0-.355.065-.667.196-.938.13-.28.313-.513.546-.7a2.57 2.57 0 0 1 .854-.448 3.771 3.771 0 0 1 1.106-.154c.653 0 1.185.103 1.596.308.42.205.793.49 1.12.854l-.938.896a2.348 2.348 0 0 0-.742-.574 2.077 2.077 0 0 0-1.036-.252c-.42 0-.733.084-.938.252a.825.825 0 0 0-.294.658c0 .28.089.49.266.63.177.14.462.243.854.308l.672.084c.803.121 1.386.36 1.75.714.373.345.56.812.56 1.4 0 .355-.07.677-.21.966a2.05 2.05 0 0 1-.574.728 2.72 2.72 0 0 1-.91.476 3.941 3.941 0 0 1-1.19.168Z"/></svg>